# xmcd
#
# Track frame offsets:
#	150
#	15809
#	31628
#	47773
#	62079
#	72217
#	90194
#	112677
#	124568
#	138535
#
# Disc length: 2139 seconds
#
# Revision: 1
# Processed by: cddbd v1.5.2PL0 Copyright (c) Steve Scherf et al.
# Submitted via: audiograbber 1.83.01
#
DISCID=6b08590a
DTITLE=Jack Ferguson - Live at Dixon Missouri
DYEAR=1900
DGENRE=
TTITLE0=Shackles and Chains
TTITLE1=Carter's Blues
TTITLE2=Where the Roses Never Fade
TTITLE3=What a Friend
TTITLE4=Red Wing
TTITLE5=If Teardrops Were Pennies
TTITLE6=The Many Hills of Time
TTITLE7=Pick Away
TTITLE8=Hancock County Tennessee
TTITLE9=Fallen Leaves
EXTD=
EXTT0=
EXTT1=
EXTT2=
EXTT3=
EXTT4=
EXTT5=
EXTT6=
EXTT7=
EXTT8=
EXTT9=
PLAYORDER=
